<?xml version="1.0" encoding="utf-8"?>
<!-- Generator: Adobe Illustrator 27.5.0, SVG Export Plug-In . SVG Version: 6.00 Build 0)  -->
<svg version="1.1" xmlns="http://www.w3.org/2000/svg" xmlns:xlink="http://www.w3.org/1999/xlink" x="0px" y="0px"
	 viewBox="0 0 1586 2524.453" style="enable-background:new 0 0 1586 2524.453;" xml:space="preserve">
<g id="Bg">
	<rect style="opacity:0;fill:#FFFFFF;" width="1586" height="2524.45"/>
</g>
<g id="Layer_1">
	<g>
		<path style="fill:#FFC622;" d="M1386.973,832.086c16.789-357.014-240.982-524.295-569.042-516.253
			c-328.058,8.053-602.173,188.381-618.954,545.398c-1.299,27.638-0.802,54.769,1.032,81.417l-0.053,1.101
			c-0.05,65.921,16.954,129.208,42.656,191.56c8.385,21.47,17.869,42.261,28.403,62.276
			c49.349,99.831,114.117,198.676,159.578,303.645c83.083,191.842,59.929,234.057,59.929,234.057l524.155-12.857
			c0,0-21.436-41.125,79.895-237.489c101.333-196.351,264.742-371.087,282.879-565.795
			C1382.253,890.761,1385.601,861.419,1386.973,832.086z"/>
		<path style="fill:#6AAAB1;" d="M1018.894,1667.525c0,0-105.59,57.07-266.118,61.304c-160.491,3.644-260.95-48.377-260.95-48.377
			s-85.705,71.53-65.867,98.618c19.842,27.08,30.702,22.219,30.702,22.219s-27.85,276.373,40.548,348.214
			c63.487,66.675,217.138,59.889,238.9,58.57c20.222,0.292,163.32-0.211,233.233-70.158c75.32-75.365,73.423-351.004,73.423-351.004
			s10.43,4.337,32.862-23.783C1098.056,1735.016,1018.894,1667.525,1018.894,1667.525z"/>
		<g>
			<path d="M573.457,1727.595c0.365-96.208-2.09-279.791-12.114-443.089c-16.169,2.15-31.701,1.659-45.905-1.72
				c-25.691-6.468-59.562-24.631-75.933-77.462c-42.595-137.981-29.467-271.48,29.303-297.541
				c13.77-6.214,49.085-13.823,83.426,43.865c24.481,41.443,39.827,150.567,49.426,274.647
				c20.615-10.003,41.631-24.487,60.981-42.378c-9.134-24.298-14.98-51.566-16.656-79.741
				c-3.611-62.412,10.066-156.924,52.057-171.47c10.716-3.698,21.997-1.378,30.695,5.021c30.03,23.62,25.853,115.173,20.708,167.615
				c-3.243,34.254-14.868,63.607-34.537,87.559c8.207,14.95,18.013,27.057,28.708,34.825c9.814,7.234,19.145,9.453,27.836,7.144
				l11.174,42.432c-21.664,5.743-43.63,0.831-64.714-13.977c-13.159-9.561-24.996-22.769-35.163-38.589
				c-25.01,21.402-51.612,37.722-77.789,48.12c12.722,197.531,12.516,415.315,12.361,454.739H573.457z M492.132,948.655
				c-2.228-1.101-4.106-1.362-5.52-0.817c-21.238,9.498-48.598,104.039-5.142,244.541c8.27,26.839,22.605,42.523,44.259,47.673
				c9.748,2.326,20.874,2.463,32.711,0.562c-8.986-124.726-22.901-230.94-44.05-266.538
				C505.958,959.781,497.825,951.466,492.132,948.655z M705.283,986.002c-8.746,20.827-18.343,65.429-15.37,115.569
				c0.72,13.457,2.662,26.753,5.648,39.508c5.5-12.11,8.843-25.468,10.263-39.963
				C710.967,1048.478,709.191,1007.339,705.283,986.002z"/>
			<path d="M868.126,1718.445c1.494-15.996,22.386-245.791,55.356-454.698c-24.819-9.385-49.477-24.134-71.814-43.583
				c-12.447,18.049-26.593,32.958-41.733,43.274c-20.558,14.133-42.161,19.153-62.348,14.728l9.526-42.914
				c10.135,2.321,20.838-3.095,28.068-8.044c12.722-8.73,24.884-22.513,35.501-39.556c-17.534-23.766-26.305-52.664-26.399-86.56
				c-0.097-42.22,3.114-143.044,35.63-167.057c8.744-6.483,19.206-8.299,29.423-5.174c40.096,13.109,48.201,108.623,38.476,172.285
				c-4.266,27.816-12.606,55.158-23.989,79.755c17.805,16.635,36.997,29.263,56.872,38.411
				c21.37-126.374,47.041-238.395,75.279-280.675c39.241-58.752,72.386-54.234,89.652-44.084
				c54.713,28.64,54.563,159.274-0.23,297.355c-22.686,57.172-61.932,75.659-90.812,81.101c-12.22,2.28-25.104,2.615-38.264,1.189
				c-25.707,165.161-45.671,351.036-54.461,448.246L868.126,1718.445z M1075.23,933.342c-2.594-1.328-15.126,3.331-32.707,29.655
				c-24.591,36.817-48.52,143.186-69.25,267.87c8.1,0.65,15.915,0.308,23.196-1.072c26.314-4.886,45.816-23.085,58.127-54.009
				C1109.458,1037.542,1094.022,942.953,1075.23,933.342z M850.441,982.513c-6.377,21.046-12.413,63.294-12.289,118.432
				c0.064,13.613,1.964,26.027,5.628,37.011c4.719-14.022,8.404-28.643,10.675-43.493
				C861.767,1046.336,857.14,1003.613,850.441,982.513z"/>
		</g>
		<path style="fill:#FFD46B;" d="M1264.957,1127.283c0,0,257.341-501.967-143.322-699.44
			c-310.871-153.218-563.979,23.589-563.979,23.589s240.488,25.132,423.382,142.714
			C1316.204,809.608,1257.453,1047.528,1264.957,1127.283z"/>
		<path style="fill:#FFD46B;" d="M1264.957,1127.283c0,0,257.341-501.967-143.322-699.44
			c-310.871-153.218-563.979,23.589-563.979,23.589s240.488,25.132,423.382,142.714
			C1316.204,809.608,1257.453,1047.528,1264.957,1127.283z"/>
		<path d="M458.316,1820.845c-9.841-4.858-14.689-16.338-10.985-26.935c4.011-11.416,16.483-17.497,27.968-13.452
			c0,0,100.091,34.125,270.452,34.189c169.949,0.145,288.226-47.499,289.413-47.959c11.288-4.659,24.164,0.837,28.625,11.929
			c4.626,11.176-0.68,24.045-11.931,28.626c-5.051,2.098-126.97,51.489-306.193,51.346c-178.45-0.141-280.662-35.206-284.887-36.724
			L458.316,1820.845z"/>
		<path d="M517.92,1946.467c-9.454-4.668-14.452-15.644-11.25-26.018c3.432-11.592,15.749-18.133,27.345-14.709
			c1.153,0.384,117.313,34.884,237.039,21.902c120.026-13.029,184.07-42.036,184.07-42.036c10.943-5.113,24.083-0.35,29.082,10.628
			c5.112,10.945,0.386,24.004-10.55,29.12c-2.836,1.282-69.743,32.021-197.938,45.893
			c-128.842,14.031-249.344-21.948-254.456-23.413C520.117,1947.454,519,1947,517.92,1946.467z"/>
		<path d="M515.149,2005.15c-9.454-4.668-14.461-15.648-11.25-26.02c3.432-11.591,15.748-18.132,27.345-14.708
			c1.151,0.383,117.311,34.883,237.148,21.858c119.954-13.064,183.999-42.071,183.999-42.071
			c10.788-4.995,24.044-0.27,29.042,10.706c5.112,10.946,0.388,24.005-10.55,29.121c-2.836,1.282-69.703,31.942-197.82,45.852
			c-128.96,14.071-249.463-21.907-254.573-23.373C517.345,2006.137,516.227,2005.683,515.149,2005.15z"/>
		<path d="M512.416,2063.755c-9.455-4.669-14.461-15.65-11.25-26.019c3.432-11.592,15.74-18.137,27.344-14.709
			c1.145,0.379,117.313,34.883,237.114,21.93c119.951-13.057,184.073-42.026,184.073-42.026
			c10.898-5.037,23.918-0.234,29.113,10.742c5.006,10.981,0.317,23.97-10.628,29.082c-2.825,1.279-69.813,31.986-197.891,45.818
			c-128.921,13.993-249.423-21.985-254.535-23.452C514.603,2064.736,513.494,2064.287,512.416,2063.755z"/>
	</g>
</g>
</svg>
